# xmcd
#
# Track frame offsets: 
#        150
#        18707
#        37385
#        60377
#        79200
#        95362
#        109852
#        125872
#        140650
#        160335
#        189165
#
# Disc length: 2667 seconds
#
# Revision: 0
# Processed by: cddbd v1.5.1PL0 Copyright (c) Steve Scherf et al.
# Submitted via: ExactAudioCopy v0.95a5
#
DISCID=9c0a690b
DTITLE=Greg Pasenko Band - A Cold Night in Chicago
DYEAR=1997
DGENRE=Blues
TTITLE0=As the Years Go Passing By
TTITLE1=Tore Down
TTITLE2=Cold Night in Chicago
TTITLE3=Don't Say Nothin
TTITLE4=She's My Baby
TTITLE5=Overtaken
TTITLE6=Wild Streak
TTITLE7=Hard to Handle
TTITLE8=Penthouse Lady
TTITLE9=Your Memory
TTITLE10=That's Not Blues
EXTD=
EXTT0=
EXTT1=
EXTT2=
EXTT3=
EXTT4=
EXTT5=
EXTT6=
EXTT7=
EXTT8=
EXTT9=
EXTT10=
PLAYORDER=
